<svg width="25" height="24" viewBox="0 0 25 24" fill="none" xmlns="http://www.w3.org/2000/svg">
<path d="M19.5739 15.7268L18.1514 17.1494L17.6509 16.6225C17.3875 16.3327 16.9133 16.3064 16.6235 16.5698C16.3337 16.8333 16.3074 17.3074 16.5708 17.5972L17.5719 18.7036C17.7036 18.8617 17.888 18.9407 18.0987 18.9407C18.0987 18.9407 18.0987 18.9407 18.1251 18.9407C18.3095 18.9407 18.5202 18.8617 18.6519 18.73L20.6277 16.7542C20.9174 16.4645 20.9174 15.9903 20.6277 15.7005C20.3379 15.4371 19.8637 15.4371 19.5739 15.7268Z" fill="#D19733"/>
<path d="M22.3389 1.92304H18.4665V0.737606C18.4665 0.34246 18.124 0 17.7289 0C17.3337 0 16.9913 0.34246 16.9913 0.737606V1.94939H8.03464V0.737606C8.03464 0.34246 7.69218 0 7.29703 0C6.90189 0 6.55943 0.34246 6.55943 0.737606V1.94939H2.68699C1.18544 1.94939 0 3.16117 0 4.63638V20.3369C0 21.8384 1.21178 23.0238 2.68699 23.0238H22.3126C23.8141 23.0238 24.9996 21.8121 24.9996 20.3369V4.63638C25.0259 3.13483 23.8141 1.92304 22.3389 1.92304ZM2.68699 3.39826H6.55943V4.61004C6.55943 5.00518 6.90189 5.34764 7.29703 5.34764C7.69218 5.34764 8.03464 5.00518 8.03464 4.61004V3.39826H16.9913V4.61004C16.9913 5.00518 17.3337 5.34764 17.7289 5.34764C18.124 5.34764 18.4665 5.00518 18.4665 4.61004V3.39826H22.3389C23.0238 3.39826 23.5771 3.95146 23.5771 4.63638V7.4024H1.47521V4.63638C1.47521 3.95146 2.02842 3.39826 2.68699 3.39826ZM22.3389 21.5486H2.68699C2.00207 21.5486 1.44887 20.9954 1.44887 20.3105V8.87761H23.5244V20.3369C23.5507 20.9954 22.9975 21.5486 22.3389 21.5486Z" fill="#D19733"/>
<path d="M13.462 16.8333H11.539C11.1439 16.8333 10.8014 17.1757 10.8014 17.5709C10.8014 17.966 11.1439 18.3085 11.539 18.3085H13.462C13.8572 18.3085 14.1996 17.966 14.1996 17.5709C14.1996 17.1757 13.8835 16.8333 13.462 16.8333Z" fill="#D19733"/>
<path d="M7.29532 16.8333H5.39862C5.00347 16.8333 4.66101 17.1757 4.66101 17.5709C4.66101 17.966 5.00347 18.3085 5.39862 18.3085H7.32166C7.71681 18.3085 8.05927 17.966 8.05927 17.5709C8.05927 17.1757 7.71681 16.8333 7.29532 16.8333Z" fill="#D19733"/>
<path d="M13.462 12.1179H11.539C11.1439 12.1179 10.8014 12.4604 10.8014 12.8555C10.8014 13.2507 11.1439 13.5931 11.539 13.5931H13.462C13.8572 13.5931 14.1996 13.2507 14.1996 12.8555C14.1996 12.434 13.8835 12.1179 13.462 12.1179Z" fill="#D19733"/>
<path d="M7.29532 12.1179H5.39862C5.00347 12.1179 4.66101 12.4604 4.66101 12.8555C4.66101 13.2507 5.00347 13.5931 5.39862 13.5931H7.32166C7.71681 13.5931 8.05927 13.2507 8.05927 12.8555C8.03292 12.434 7.71681 12.1179 7.29532 12.1179Z" fill="#D19733"/>
<path d="M17.7282 13.5931H19.6249C20.02 13.5931 20.3625 13.2507 20.3625 12.8555C20.3625 12.4604 20.02 12.1179 19.6249 12.1179H17.7018C17.3067 12.1179 16.9642 12.4604 16.9642 12.8555C16.9906 13.2507 17.3067 13.5931 17.7282 13.5931Z" fill="#D19733"/>
</svg>
