<svg width="34" height="20" viewBox="0 0 34 20" fill="none" xmlns="http://www.w3.org/2000/svg">
<path d="M32.6319 1.87532C32.3372 1.7101 31.9744 1.71521 31.6882 1.89065L25.662 5.55272V2.11719C25.662 0.950434 24.7116 0 23.5448 0H2.78515C1.6184 0 0.667969 0.950434 0.667969 2.11719V17.8828C0.667969 19.0496 1.6184 20 2.78515 20H23.5431C24.7099 20 25.6603 19.0496 25.6603 17.8828V14.4456L31.6882 18.1076C31.971 18.2797 32.3406 18.2865 32.6319 18.123C32.9265 17.9578 33.1088 17.6461 33.1088 17.3088V2.68949C33.1088 2.35224 32.9248 2.04054 32.6319 1.87532ZM31.2386 4.3519V15.6464L25.662 12.2586V7.74144L31.2386 4.3519ZM23.5431 18.1298H2.78515C2.64889 18.1298 2.53818 18.0191 2.53818 17.8828V2.11719C2.53818 1.98092 2.64889 1.87021 2.78515 1.87021H23.5431C23.6794 1.87021 23.7901 1.98092 23.7901 2.11719V17.8828C23.7918 18.0191 23.6794 18.1298 23.5431 18.1298Z" fill="white"/>
</svg>
