<svg width="18" height="19" viewBox="0 0 18 19" fill="none" xmlns="http://www.w3.org/2000/svg">
<path d="M9 0.5C7.21997 0.5 5.47991 1.02784 3.99987 2.01677C2.51983 3.00571 1.36628 4.41131 0.685088 6.05585C0.00389965 7.70038 -0.17433 9.50998 0.172936 11.2558C0.520203 13.0016 1.37737 14.6053 2.63604 15.864C3.89471 17.1226 5.49836 17.9798 7.24419 18.3271C8.99002 18.6743 10.7996 18.4961 12.4442 17.8149C14.0887 17.1337 15.4943 15.9802 16.4832 14.5001C17.4722 13.0201 18 11.28 18 9.5C18 7.11305 17.0518 4.82387 15.364 3.13604C13.6761 1.44821 11.387 0.5 9 0.5ZM9 17.3C7.45731 17.3 5.94926 16.8425 4.66656 15.9855C3.38385 15.1284 2.38411 13.9102 1.79374 12.4849C1.20338 11.0597 1.04891 9.49135 1.34988 7.97829C1.65084 6.46524 2.39372 5.07542 3.48457 3.98457C4.57542 2.89372 5.96525 2.15084 7.4783 1.84987C8.99135 1.54891 10.5597 1.70338 11.9849 2.29374C13.4102 2.8841 14.6284 3.88385 15.4855 5.16655C16.3425 6.44925 16.8 7.9573 16.8 9.5C16.8 11.5687 15.9782 13.5526 14.5154 15.0154C13.0527 16.4782 11.0687 17.3 9 17.3Z" fill="#30323D"/>
<path d="M8.99996 2.8999C8.84083 2.8999 8.68822 2.96312 8.5757 3.07564C8.46318 3.18816 8.39996 3.34077 8.39996 3.4999V9.2539L5.57396 12.0739C5.51773 12.1297 5.47309 12.196 5.44263 12.2692C5.41217 12.3423 5.39648 12.4207 5.39648 12.4999C5.39648 12.5791 5.41217 12.6575 5.44263 12.7306C5.47309 12.8038 5.51773 12.8701 5.57396 12.9259C5.62974 12.9821 5.6961 13.0268 5.76922 13.0572C5.84233 13.0877 5.92076 13.1034 5.99996 13.1034C6.07917 13.1034 6.15759 13.0877 6.23071 13.0572C6.30382 13.0268 6.37019 12.9821 6.42596 12.9259L9.42596 9.9259C9.48157 9.86984 9.52557 9.80335 9.55543 9.73025C9.58528 9.65714 9.60042 9.57887 9.59996 9.4999V3.4999C9.59996 3.34077 9.53675 3.18816 9.42423 3.07564C9.31171 2.96312 9.15909 2.8999 8.99996 2.8999Z" fill="#30323D"/>
</svg>
