<svg width="42" height="42" viewBox="0 0 42 42" fill="none" xmlns="http://www.w3.org/2000/svg">
<g clip-path="url(#clip0)">
<path d="M39.6818 0H2.3182C1.70338 0 1.11373 0.244239 0.678986 0.678986C0.244239 1.11373 0 1.70338 0 2.3182L0 39.6818C0 40.2966 0.244239 40.8863 0.678986 41.321C1.11373 41.7558 1.70338 42 2.3182 42H22.4355V25.7578H16.9805V19.4004H22.4355V14.7246C22.4355 9.29988 25.7488 6.34594 30.5895 6.34594C32.9068 6.34594 34.8994 6.5182 35.4785 6.59203V12.2612H32.1398C29.5066 12.2612 28.9964 13.5122 28.9964 15.3489V19.4004H35.2915L34.4712 25.7578H28.9964V42H39.6802C39.9847 42.0002 40.2864 41.9404 40.5678 41.824C40.8492 41.7076 41.105 41.5369 41.3204 41.3216C41.5359 41.1063 41.7068 40.8507 41.8234 40.5693C41.94 40.2879 42 39.9864 42 39.6818V2.3182C42 1.70338 41.7558 1.11373 41.321 0.678986C40.8863 0.244239 40.2966 0 39.6818 0V0Z" fill="#4267B2"/>
<path d="M28.998 42V25.7579H34.4736L35.2939 19.4004H28.998V15.3514C28.998 13.5147 29.5066 12.2637 32.1415 12.2637H35.4785V6.5929C34.8977 6.51579 32.9052 6.3468 30.5895 6.3468C25.7496 6.3468 22.4355 9.29993 22.4355 14.7255V19.4013H16.9805V25.7579H22.4355V42H28.998Z" fill="white"/>
</g>
<defs>
<clipPath id="clip0">
<rect width="42" height="42" fill="white"/>
</clipPath>
</defs>
</svg>
