<svg width="27" height="27" viewBox="0 0 27 27" fill="none" xmlns="http://www.w3.org/2000/svg">
<g clip-path="url(#clip0)">
<path d="M25.5097 0H1.49027C1.09503 0 0.715971 0.157011 0.436491 0.436491C0.157011 0.715971 0 1.09503 0 1.49027L0 25.5097C0 25.905 0.157011 26.284 0.436491 26.5635C0.715971 26.843 1.09503 27 1.49027 27H14.4229V16.5586H10.916V12.4717H14.4229V9.46582C14.4229 5.9785 16.5528 4.07953 19.6646 4.07953C21.1544 4.07953 22.4353 4.19027 22.8076 4.23773V7.88221H20.6613C18.9686 7.88221 18.6405 8.68641 18.6405 9.86713V12.4717H22.6874L22.16 16.5586H18.6405V27H25.5087C25.7045 27.0001 25.8984 26.9617 26.0793 26.8869C26.2602 26.812 26.4246 26.7023 26.5631 26.5639C26.7016 26.4255 26.8115 26.2612 26.8865 26.0803C26.9614 25.8994 27 25.7055 27 25.5097V1.49027C27 1.09503 26.843 0.715971 26.5635 0.436491C26.284 0.157011 25.905 0 25.5097 0V0Z" fill="#B1B1B1"/>
<path d="M18.6416 27V16.5586H22.1616L22.689 12.4717H18.6416V9.86873C18.6416 8.68801 18.9686 7.88381 20.6624 7.88381H22.8076V4.23828C22.4343 4.18871 21.1533 4.08008 19.6646 4.08008C16.5533 4.08008 14.4229 5.97851 14.4229 9.46637V12.4722H10.916V16.5586H14.4229V27H18.6416Z" fill="white"/>
</g>
<defs>
<clipPath id="clip0">
<rect width="27" height="27" fill="white"/>
</clipPath>
</defs>
</svg>
