<svg width="21" height="15" viewBox="0 0 21 15" fill="none" xmlns="http://www.w3.org/2000/svg">
<path d="M19.5752 0H1.42484C0.6357 0 0 0.624103 0 1.39885V13.6011C0 14.3759 0.6357 15 1.42484 15H19.5752C20.3643 15 21 14.3759 21 13.6011V1.39885C21 0.624103 20.3643 0 19.5752 0ZM20.3424 1.39885V13.6011C20.3424 13.6872 20.3205 13.7733 20.2985 13.8594C20.2109 13.6872 20.1013 13.5366 19.9697 13.3859L13.9635 7.51076L19.9697 1.61406C20.1013 1.48494 20.2109 1.31277 20.2985 1.1406C20.3205 1.22669 20.3424 1.31277 20.3424 1.39885ZM19.5752 0.645624C19.6409 0.645624 19.7067 0.645624 19.7724 0.667145C19.7286 0.839311 19.6409 1.01148 19.5094 1.1406L11.2015 9.29699C11.0042 9.49067 10.763 9.57676 10.5 9.57676C10.237 9.57676 9.9739 9.46915 9.79854 9.29699L1.49061 1.16212C1.35908 1.033 1.2714 0.860832 1.22756 0.688665C1.29332 0.667145 1.35908 0.667145 1.42484 0.667145H19.5752V0.645624ZM0.701461 13.8594C0.679541 13.7733 0.65762 13.6872 0.65762 13.6011V1.39885C0.65762 1.31277 0.679541 1.22669 0.701461 1.1406C0.789144 1.31277 0.898747 1.46341 1.03027 1.61406L7.03653 7.51076L1.03027 13.4075C0.898747 13.5366 0.789144 13.6872 0.701461 13.8594ZM1.42484 14.3759C1.35908 14.3759 1.29332 14.3544 1.22756 14.3544C1.2714 14.1607 1.35908 14.01 1.49061 13.8594L7.49687 7.9627L9.31628 9.74892C9.64509 10.0717 10.0616 10.2224 10.5 10.2224C10.9384 10.2224 11.3549 10.0717 11.6837 9.74892L13.5031 7.9627L19.5094 13.8594C19.6409 13.9885 19.7286 14.1607 19.7724 14.3544C19.7067 14.3759 19.6409 14.3759 19.5752 14.3759H1.42484Z" fill="#D19733"/>
</svg>
