<svg width="22" height="22" viewBox="0 0 22 22" fill="none" xmlns="http://www.w3.org/2000/svg">
<path d="M15.5268 0H5.91791C2.65478 0 0 2.6549 0 5.91803V15.5269C0 18.7902 2.65478 21.445 5.91791 21.445H15.5268C18.7902 21.445 21.445 18.7901 21.445 15.5269V5.91803C21.4451 2.6549 18.7902 0 15.5268 0ZM19.5424 15.5269C19.5424 17.741 17.741 19.5423 15.5269 19.5423H5.91791C3.70392 19.5424 1.9027 17.741 1.9027 15.5269V5.91803C1.9027 3.70405 3.70392 1.9027 5.91791 1.9027H15.5268C17.7409 1.9027 19.5423 3.70405 19.5423 5.91803V15.5269H19.5424Z" fill="white"/>
<path d="M10.7226 5.19678C7.67562 5.19678 5.19678 7.67562 5.19678 10.7226C5.19678 13.7695 7.67562 16.2482 10.7226 16.2482C13.7696 16.2482 16.2484 13.7695 16.2484 10.7226C16.2484 7.67562 13.7696 5.19678 10.7226 5.19678ZM10.7226 14.3453C8.72489 14.3453 7.09948 12.7202 7.09948 10.7225C7.09948 8.72464 8.72477 7.09935 10.7226 7.09935C12.7204 7.09935 14.3457 8.72464 14.3457 10.7225C14.3457 12.7202 12.7203 14.3453 10.7226 14.3453Z" fill="white"/>
<path d="M16.4803 3.5835C16.1137 3.5835 15.7536 3.73191 15.4947 3.99194C15.2345 4.25071 15.085 4.61095 15.085 4.97881C15.085 5.34552 15.2346 5.70564 15.4947 5.96568C15.7534 6.22445 16.1137 6.37413 16.4803 6.37413C16.8481 6.37413 17.2071 6.22445 17.4671 5.96568C17.7272 5.70564 17.8756 5.3454 17.8756 4.97881C17.8756 4.61095 17.7272 4.25071 17.4671 3.99194C17.2084 3.73191 16.8481 3.5835 16.4803 3.5835Z" fill="white"/>
</svg>
