<svg width="42" height="42" viewBox="0 0 42 42" fill="none" xmlns="http://www.w3.org/2000/svg">
<g clip-path="url(#clip0)">
<path d="M38.8894 0.00195312H3.10013C1.39125 0.00195312 0 1.35777 0 3.02727V38.9688C0 40.6422 1.39125 42.0006 3.10013 42.0006H38.892C40.6048 42.0006 42 40.6422 42 38.9688V3.02727C42 1.35777 40.6048 0.00195312 38.8894 0.00195312Z" fill="#0177B5"/>
<path d="M6.22791 15.7461H12.4688V35.788H6.22791V15.7461ZM9.34378 5.77112C11.3348 5.77112 12.9532 7.38943 12.9532 9.3805C12.9532 11.3716 11.3348 12.9938 9.34509 12.9938C8.3873 12.9917 7.46931 12.6104 6.79193 11.9333C6.11454 11.2561 5.7329 10.3383 5.73047 9.3805C5.73047 8.90617 5.82396 8.4365 6.00559 7.99834C6.18723 7.56017 6.45344 7.1621 6.78902 6.82689C7.1246 6.49168 7.52296 6.22589 7.96132 6.04474C8.39969 5.86358 8.86946 5.7706 9.34378 5.77112ZM16.3657 15.7461H22.3402V18.4853H22.4228C23.255 16.9103 25.2867 15.2487 28.3291 15.2487C34.637 15.2487 35.8012 19.4001 35.8012 24.7958V35.7893H29.576V26.0401C29.576 23.7169 29.534 20.7244 26.3393 20.7244C23.0975 20.7244 22.5987 23.2576 22.5987 25.8694V35.7841H16.3748V15.7422L16.3657 15.7461Z" fill="white"/>
</g>
<defs>
<clipPath id="clip0">
<rect width="42" height="42" fill="white"/>
</clipPath>
</defs>
</svg>
