<svg width="19" height="24" viewBox="0 0 19 24" fill="none" xmlns="http://www.w3.org/2000/svg">
<path d="M9.1163 0C14.1478 0 18.2326 4.0848 18.2326 9.1163C18.2326 12.7844 15.6161 16.085 13.4271 18.8465C12.0961 20.3994 10.8071 22.1747 9.53479 23.7941C9.29557 24.0993 8.94003 24.0381 8.69241 23.7875L4.81266 18.8531C2.62067 16.0916 0 12.7874 0 9.1163C0 4.0848 4.0848 0 9.1163 0V0ZM9.1163 1.06602C4.66637 1.06602 1.06602 4.66637 1.06602 9.1163C1.06602 12.4199 3.55958 15.564 5.64365 18.1924L9.1163 22.6046C10.2657 21.1423 11.487 19.6709 12.5949 18.1846C14.6772 15.5574 17.1666 12.4169 17.1666 9.1163C17.1666 4.66637 13.5662 1.06602 9.1163 1.06602Z" fill="#D19733"/>
<path d="M9.11647 4.55273C11.6328 4.55273 13.6791 6.59963 13.6791 9.11598C13.6791 11.6347 11.6352 13.6786 9.11647 13.6786C6.60012 13.6786 4.55322 11.6323 4.55322 9.11598C4.55322 6.59963 6.60012 4.55273 9.11647 4.55273ZM9.11647 5.61875C7.18169 5.61875 5.61924 7.1812 5.61924 9.11598C5.61924 11.0508 7.18229 12.6126 9.11647 12.6126C11.0482 12.6126 12.6131 11.0478 12.6131 9.11598C12.6131 7.1818 11.0506 5.61875 9.11647 5.61875Z" fill="#D19733"/>
</svg>
