<svg width="29" height="21" viewBox="0 0 29 21" fill="none" xmlns="http://www.w3.org/2000/svg">
<path d="M25.7871 0H3.21256C1.4413 0 0 1.32179 0 2.94618V18.0538C0 19.6785 1.4413 21 3.21256 21H25.7871C27.5587 21 29 19.6785 29 18.0538V2.94618C29 1.32149 27.5587 0 25.7871 0ZM3.21256 1.41635H25.7871C25.9602 1.41635 26.1319 1.44147 26.2969 1.49052L15.6529 11.4815C15.3458 11.7699 14.936 11.9289 14.5 11.9289C14.0637 11.9289 13.6542 11.7699 13.3471 11.4815L2.70312 1.49052C2.86778 1.44147 3.03984 1.41635 3.21256 1.41635ZM1.54409 18.0538V2.94618C1.54409 2.79458 1.56954 2.64388 1.6182 2.49908L10.2161 10.5699L1.65751 18.6041C1.58308 18.4288 1.54409 18.2427 1.54409 18.0538ZM25.7871 19.5836H3.21256C3.07883 19.5836 2.94769 19.5686 2.81944 19.5402L11.2958 11.5832L12.2422 12.4712C12.8425 13.0347 13.6448 13.345 14.5003 13.345C15.3558 13.345 16.1585 13.0347 16.7588 12.4712L17.7048 11.5832L26.1806 19.5402C26.053 19.5692 25.9212 19.5836 25.7871 19.5836ZM27.4559 18.0538C27.4559 18.2429 27.4172 18.4291 27.3422 18.6038L18.7839 10.5696L27.3821 2.49878C27.4305 2.64358 27.4559 2.79429 27.4559 2.94588V18.0538Z" fill="#D19733"/>
</svg>
