<?xml version="1.0"?>
<svg xmlns="http://www.w3.org/2000/svg" id="Capa_1" enable-background="new 0 0 512 512" height="512px" viewBox="0 0 512 512" width="512px" class=""><g><g><path d="m256 332c53.762 0 97.5-43.738 97.5-97.5v-137c0-53.762-43.738-97.5-97.5-97.5s-97.5 43.738-97.5 97.5v137c0 53.762 43.738 97.5 97.5 97.5zm-67.5-234.5c0-37.22 30.28-67.5 67.5-67.5s67.5 30.28 67.5 67.5v137c0 37.22-30.28 67.5-67.5 67.5s-67.5-30.28-67.5-67.5z" data-original="#000000" class="active-path" data-old_color="#000000" fill="#FFFFFF"/><path d="m368.5 422h-60v-39.009c61.11-21.67 105-80.047 105-148.491v-68.5h-30v68.5c0 70.304-57.196 127.5-127.5 127.5s-127.5-57.196-127.5-127.5v-68.5h-30v68.5c0 68.444 43.89 126.821 105 148.491v39.009h-60c-41.355 0-75 33.645-75 75v15h375v-15c0-41.355-33.645-75-75-75zm-135-31.614c7.351 1.056 14.861 1.614 22.5 1.614s15.149-.558 22.5-1.614v31.614h-45zm-132.43 91.614c6.19-17.461 22.873-30 42.43-30h225c19.557 0 36.239 12.539 42.43 30z" data-original="#000000" class="active-path" data-old_color="#000000" fill="#FFFFFF"/></g></g> </svg>
