<svg width="18" height="18" viewBox="0 0 18 18" fill="none" xmlns="http://www.w3.org/2000/svg">
<path d="M15.4997 1.93635H13.9993V0.5H12.9994V1.93635H4.99975V0.5H3.9998V1.93635H2.50032C1.12172 1.93635 0 3.01021 0 4.32998V15.3392C0 16.6589 1.12172 17.7328 2.50032 17.7328H15.4997C16.8783 17.7328 18 16.6589 18 15.3392V6.72276V5.76548V4.32913C17.9991 3.00936 16.8774 1.93635 15.4997 1.93635ZM16.9992 15.3383C16.9992 16.1297 16.3263 16.7738 15.4997 16.7738H2.50032C1.67281 16.7738 0.999951 16.1297 0.999951 15.3383V6.72276H16.9992V15.3383ZM16.9992 5.76548H0.999951V4.32913C0.999951 3.53693 1.67281 2.89278 2.50032 2.89278H4.00069V3.85006H4.99975V2.89363H12.9994V3.85091H13.9993V2.89363H15.4997C16.3263 2.89363 16.9992 3.53693 16.9992 4.32913V5.76548Z" fill="#30323D"/>
</svg>
