<svg width="21" height="23" viewBox="0 0 21 23" fill="none" xmlns="http://www.w3.org/2000/svg">
<path d="M10.129 0.00431912C9.75518 0.0474108 9.44414 0.402364 9.4505 0.778558V1.59271C8.02674 1.77038 6.80742 2.43614 5.8906 3.38064C4.81318 4.49057 4.13295 5.96779 3.84725 7.53918L2.82557 13.1584C2.61356 14.3244 2.18137 14.5637 1.56444 14.9703C1.25598 15.1735 0.8798 15.3904 0.550747 15.7764C0.221694 16.1625 0 16.7263 0 17.3808C0 18.4995 0.924589 19.4241 2.04335 19.4241H6.39345C6.52611 21.4149 8.19354 23 10.2168 23C12.24 23 13.9074 21.4149 14.0401 19.4241H18.3902C19.5089 19.4241 20.4335 18.4995 20.4335 17.3808C20.4335 16.7263 20.2118 16.1625 19.8828 15.7764C19.5537 15.3904 19.1775 15.1735 18.8691 14.9703C18.2521 14.5637 17.8199 14.3245 17.6079 13.1584L16.5863 7.53918C16.3006 5.96779 15.6203 4.49057 14.5429 3.38064C13.6261 2.43614 12.4068 1.77038 10.983 1.59271V0.778558C10.9904 0.343707 10.561 -0.0455284 10.129 0.00431912ZM10.2168 3.07733C11.5615 3.07733 12.6149 3.59073 13.4414 4.44222C14.268 5.29371 14.8474 6.50006 15.0857 7.81056L16.1074 13.4298C16.3974 15.0252 17.3686 15.8109 18.031 16.2474C18.3622 16.4656 18.5981 16.6262 18.7174 16.7662C18.8367 16.9062 18.901 17.0153 18.901 17.3808C18.901 17.677 18.6864 17.8916 18.3902 17.8916H2.04335C1.74709 17.8916 1.53251 17.677 1.53251 17.3808C1.53251 17.0153 1.5968 16.9062 1.7161 16.7662C1.83539 16.6262 2.07136 16.4656 2.40253 16.2474C3.06489 15.8109 4.03607 15.0252 4.32616 13.4298L5.34783 7.81056C5.58611 6.50006 6.16555 5.29371 6.99209 4.44222C7.81864 3.59073 8.87204 3.07733 10.2168 3.07733ZM7.96588 19.4241H12.4676C12.3381 20.5804 11.4126 21.4675 10.2168 21.4675C9.02096 21.4675 8.09543 20.5804 7.96588 19.4241Z" fill="#D19733"/>
</svg>
