<svg width="19" height="19" viewBox="0 0 19 19" fill="none" xmlns="http://www.w3.org/2000/svg">
<path d="M13.9259 18.0197C13.9259 18.0197 13.9259 18.0197 13.9258 18.0197C13.349 18.0197 12.1411 17.9238 10.5333 17.2815C8.56777 16.4963 6.62684 15.1539 4.76443 13.2914C1.05275 9.57981 -0.310719 6.81953 0.0581986 3.76392C0.231814 2.23086 0.889335 1.46423 1.79916 0.548833C2.15342 0.194616 2.61975 0 3.11325 0C3.58679 0 4.02886 0.18133 4.35814 0.510562L7.01612 3.16854C7.71058 3.86549 7.69442 5.01279 6.98063 5.72658L6.22012 6.48606C6.01364 6.69229 5.97279 7.01256 6.12095 7.26499C6.71826 8.2829 7.26045 9.08605 8.11657 9.94359C8.87121 10.6982 9.64676 11.2782 10.7932 11.9451C10.8909 12.0019 11.0022 12.0319 11.115 12.0319C11.2863 12.0319 11.4473 11.9653 11.5683 11.8445L12.3333 11.0806C12.686 10.728 13.1522 10.5336 13.6458 10.5336C14.1189 10.5336 14.561 10.7145 14.8906 11.0429L17.5491 13.7015C18.2429 14.3977 18.2269 15.5456 17.5141 16.2609C17.5129 16.2621 17.5115 16.2634 17.5103 16.2646C16.557 17.1974 15.8182 17.8223 14.295 18.0033C14.2934 18.0035 14.2918 18.0037 14.2902 18.0039C14.246 18.0087 14.1222 18.0197 13.9259 18.0197ZM3.11325 0.857151C2.8487 0.857151 2.59759 0.96258 2.40619 1.15402C1.45951 2.1064 1.04204 2.69372 0.90952 3.86352C0.575746 6.62817 1.86824 9.18317 5.37052 12.6853C9.52474 16.8396 12.9692 17.1625 13.9259 17.1625C13.9259 17.1625 13.9259 17.1625 13.926 17.1625C14.0838 17.1625 14.1753 17.1541 14.1966 17.1519C15.4082 17.0072 15.9797 16.5628 16.9086 15.6541C17.2873 15.2724 17.3026 14.6686 16.9424 14.307L14.2849 11.6496C14.1177 11.4829 13.8905 11.3908 13.6457 11.3908C13.3811 11.3908 13.1301 11.4959 12.9391 11.6869L12.1739 12.451C11.8911 12.7335 11.515 12.8891 11.115 12.8891C10.8509 12.8891 10.5906 12.8189 10.3621 12.686C9.51638 12.194 8.51613 11.5554 7.51014 10.5494C6.58939 9.62709 6.01308 8.77491 5.38157 7.69875C5.03593 7.10963 5.13163 6.36151 5.61442 5.8795L6.37471 5.12027C6.75464 4.7403 6.77033 4.13631 6.40947 3.77412L3.752 1.1167C3.58469 0.949337 3.35784 0.857151 3.11325 0.857151Z" fill="#D19733"/>
</svg>
