<svg width="32" height="31" viewBox="0 0 32 31" fill="none" xmlns="http://www.w3.org/2000/svg">
<path d="M2.22301 0C1.06425 0 0.109375 0.954867 0.109375 2.11364C0.109375 3.1517 0.878034 4.02334 1.87074 4.19425V20.7841C1.87074 21.3574 2.35427 21.8409 2.92756 21.8409H14.9048V23.6683L9.80787 29.1065C9.68177 29.2439 9.61524 29.4257 9.62283 29.612C9.63043 29.7983 9.71153 29.974 9.84839 30.1007C9.98525 30.2274 10.1667 30.2946 10.3531 30.2878C10.5394 30.281 10.7155 30.2006 10.8427 30.0642L14.9048 25.7269V28.1818C14.9048 28.5709 15.2203 28.8864 15.6094 28.8864C15.9985 28.8864 16.3139 28.5709 16.3139 28.1818V25.7269L20.376 30.0642C20.4388 30.1326 20.5145 30.188 20.5987 30.227C20.6829 30.2661 20.774 30.2881 20.8667 30.2919C20.9595 30.2957 21.0521 30.2811 21.1392 30.2491C21.2263 30.217 21.3062 30.168 21.3743 30.105C21.4424 30.0419 21.4974 29.966 21.5362 29.8816C21.5749 29.7973 21.5966 29.7061 21.6 29.6133C21.6034 29.5205 21.5884 29.428 21.556 29.3411C21.5235 29.2541 21.4742 29.1744 21.4109 29.1065L16.3139 23.6683V21.8409H28.2912C28.8645 21.8409 29.348 21.3574 29.348 20.7841V4.19425C30.3407 4.02334 31.1094 3.1517 31.1094 2.11364C31.1094 0.954867 30.1545 0 28.9957 0H2.22301ZM2.22301 1.40909H28.9957C29.3982 1.40909 29.7003 1.71113 29.7003 2.11364C29.7003 2.51614 29.3982 2.81818 28.9957 2.81818H2.22301C1.8205 2.81818 1.51847 2.51614 1.51847 2.11364C1.51847 1.71113 1.8205 1.40909 2.22301 1.40909ZM3.27983 4.22727H27.9389V20.4318H3.27983V4.22727ZM19.1321 5.98864C17.9731 5.98864 17.0185 6.9433 17.0185 8.10227C17.0185 8.20669 17.0259 8.30994 17.0403 8.41051L13.5066 10.7773C13.1299 10.432 12.6327 10.2159 12.0866 10.2159C10.9277 10.2159 9.97301 11.1706 9.97301 12.3295C9.97301 13.4885 10.9277 14.4432 12.0866 14.4432C12.6271 14.4432 13.1202 14.2319 13.4957 13.8928L17.0405 16.2596C17.0267 16.3565 17.0186 16.4563 17.0186 16.5568C17.0186 17.7158 17.9733 18.6704 19.1323 18.6704C20.2913 18.6704 21.2459 17.7158 21.2459 16.5568C21.2459 15.3978 20.2913 14.4432 19.1323 14.4432C18.5862 14.4432 18.0891 14.6592 17.7122 15.0046L14.1784 12.6378C14.1932 12.5372 14.2003 12.434 14.2003 12.3295C14.2003 12.229 14.1922 12.1292 14.1784 12.0323L17.723 9.66548C18.0985 10.0046 18.5916 10.2159 19.1321 10.2159C20.2911 10.2159 21.2457 9.26125 21.2457 8.10227C21.2457 6.9433 20.2911 5.98864 19.1321 5.98864ZM19.1321 7.39773C19.5295 7.39773 19.8366 7.7048 19.8366 8.10227C19.8366 8.49974 19.5295 8.80682 19.1321 8.80682C18.7346 8.80682 18.4276 8.49974 18.4276 8.10227C18.4276 7.7048 18.7346 7.39773 19.1321 7.39773ZM12.0866 11.625C12.4841 11.625 12.7912 11.9321 12.7912 12.3295C12.7912 12.727 12.4841 13.0341 12.0866 13.0341C11.6892 13.0341 11.3821 12.727 11.3821 12.3295C11.3821 11.9321 11.6892 11.625 12.0866 11.625ZM19.1321 15.8523C19.5295 15.8523 19.8366 16.1593 19.8366 16.5568C19.8366 16.9543 19.5295 17.2613 19.1321 17.2613C18.7346 17.2613 18.4276 16.9543 18.4276 16.5568C18.4276 16.1593 18.7346 15.8523 19.1321 15.8523Z" fill="white"/>
</svg>
