<svg width="32" height="32" viewBox="0 0 32 32" fill="none" xmlns="http://www.w3.org/2000/svg">
<path d="M32 16C32 7.2 24.8 0 16 0C15.4 0 15 0.4 15 1C15 1.6 15.4 2 16 2C23.7 2 30 8.3 30 16C30 23.7 23.7 30 16 30C8.3 30 2 23.7 2 16C2 15.4 1.6 15 1 15C0.6 15 0.2 15.3 0.1 15.6C3.7998e-07 15.7 0 15.9 0 16C0 24.8 7.2 32 16 32C24.8 32 32 24.8 32 16Z" fill="white"/>
<path d="M2.1993 11.2C2.5993 11.2 2.9993 11 3.0993 10.6C3.2993 10.1 3.0993 9.50003 2.5993 9.30003C2.0993 9.10003 1.4993 9.30003 1.2993 9.80003C1.0993 10.3 1.2993 10.9 1.7993 11.1C1.8993 11.1 1.9993 11.2 2.1993 11.2Z" fill="white"/>
<path d="M10.5994 2.9999C10.6994 2.9999 10.7994 2.9999 10.9994 2.8999C11.4994 2.6999 11.7994 2.0999 11.5994 1.5999C11.3994 1.0999 10.7994 0.799902 10.2994 0.999902C9.79936 1.1999 9.49937 1.7999 9.69937 2.2999C9.79937 2.7999 10.1994 2.9999 10.5994 2.9999Z" fill="white"/>
<path d="M6.29961 4.49995C5.89961 4.09995 5.29961 4.09995 4.89961 4.49995C4.49961 4.89995 4.49961 5.49995 4.89961 5.89995C5.09961 6.09995 5.39961 6.19995 5.59961 6.19995C5.89961 6.19995 6.09961 6.09995 6.29961 5.89995C6.59961 5.59995 6.59961 4.89995 6.29961 4.49995Z" fill="white"/>
<path d="M16 7C15.4 7 15 7.4 15 8V16C15 16.1 15 16.3 15.1 16.4C15.2 16.5 15.2 16.6 15.3 16.7L19.9 21.3C20.1 21.5 20.4 21.6 20.6 21.6C20.8 21.6 21.1 21.5 21.3 21.3C21.7 20.9 21.7 20.3 21.3 19.9L17 15.6V8C17 7.4 16.6 7 16 7Z" fill="white"/>
</svg>
