<svg width="36" height="27" viewBox="0 0 36 27" fill="none" xmlns="http://www.w3.org/2000/svg">
<path d="M30.1691 9.963C31.0694 8.90431 31.6314 7.54437 31.6314 6.03947C31.6314 2.70853 28.9669 0 25.6901 0C22.4133 0 19.7488 2.70995 19.7488 6.03947C19.7488 7.54437 20.3108 8.90431 21.2111 9.963C18.9925 11.0586 17.2619 12.9145 16.2791 15.1442C15.8094 14.8031 15.3187 14.4876 14.7917 14.2262C15.6906 13.1675 16.254 11.8075 16.254 10.3026C16.254 6.97168 13.5895 4.26316 10.3127 4.26316C7.03588 4.26316 4.37139 6.9731 4.37139 10.3026C4.37139 11.8075 4.93476 13.1675 5.83364 14.2262C2.3164 15.9641 0.0027959 19.6006 0 23.625C0 25.488 1.48882 27 3.32013 27H17.2996C19.1295 27 20.6198 25.488 20.6226 23.625C20.6226 23.3252 20.5848 23.0324 20.5596 22.7368H32.6771C34.507 22.7368 35.9972 21.2248 36 19.3618C36 15.336 33.6878 11.6995 30.1691 9.963ZM21.1468 6.03947C21.1468 3.49295 23.185 1.42105 25.6901 1.42105C28.1952 1.42105 30.2335 3.49295 30.2335 6.03947C30.2335 8.586 28.1952 10.6579 25.6901 10.6579C23.185 10.6579 21.1468 8.586 21.1468 6.03947ZM5.76934 10.3026C5.76934 7.7561 7.80755 5.68421 10.3127 5.68421C12.8178 5.68421 14.856 7.7561 14.856 10.3026C14.856 12.8492 12.8178 14.9211 10.3127 14.9211C7.80755 14.9211 5.76934 12.8492 5.76934 10.3026ZM17.2996 25.5789H3.32013C2.80568 25.5789 2.32339 25.3757 1.95993 25.0077C1.59786 24.6382 1.39935 24.1494 1.40075 23.625C1.40075 19.9573 3.62069 16.659 6.94641 15.2706C7.9054 15.9456 9.06291 16.3421 10.3141 16.3421C11.5652 16.3421 12.7227 15.9428 13.6803 15.2706C17.0061 16.659 19.2246 19.9573 19.2218 23.625C19.2218 24.7022 18.3593 25.5789 17.2996 25.5789ZM32.6771 21.3158H20.3388C19.883 19.3078 18.8583 17.496 17.4045 16.0863C18.2824 13.8268 20.0354 11.9624 22.3239 11.0075C23.2829 11.6811 24.4404 12.0789 25.6915 12.0789C26.9427 12.0789 28.1016 11.6796 29.0578 11.0075C32.3835 12.3958 34.602 15.6941 34.5993 19.3618C34.5993 20.439 33.7367 21.3158 32.6771 21.3158Z" fill="white"/>
</svg>
